<svg id="tiktok" viewBox="0 0 512 512">
  <path 
    d="M412.2 118.7a109.3 109.3 0 0 1-9.5-5.5 132.9 132.9 0 0 1-24.2-20.7A114.5 114.5 0 0 1 351 36.1h.1a69.5 69.5 0 0 1-1-20.1h-82.5v318.8c0 4.3 0 8.5-.2 12.7v1.5l-.1.7v.2a70 70 0 0 1-35.2 55.6 68.8 68.8 0 0 1-34.1 9c-38.5 0-69.6-31.3-69.6-70s31.1-70 69.5-70a68.9 68.9 0 0 1 21.5 3.4v-84a153.1 153.1 0 0 0-118 34.5A161.8 161.8 0 0 0 66.4 272c-3.5 6-16.6 30-18.2 69.2-1 22.2 5.6 45.2 8.8 54.7v.3c2 5.5 9.8 24.7 22.4 40.8a167.5 167.5 0 0 0 35.7 33.7v-.2l.2.2c40 27 84.2 25.3 84.2 25.3 7.6-.3 33.3 0 62.4-13.8 32.3-15.3 50.7-38.1 50.7-38.1a158.5 158.5 0 0 0 27.7-46 172 172 0 0 0 10-52.5V176.5l14.2 9.4s19.2 12.3 49.2 20.3a283 283 0 0 0 50.4 7v-82c-10.1 1.2-30.7-2-51.8-12.5Z"/>
</svg>